<svg width="512" height="512" viewBox="0 0 512 512" fill="none" xmlns="http://www.w3.org/2000/svg">
  <defs>
    <linearGradient id="bg" x1="64" y1="64" x2="448" y2="448" gradientUnits="userSpaceOnUse">
      <stop stop-color="#1E3A8A"/>
      <stop offset="1" stop-color="#2563EB"/>
    </linearGradient>
    <linearGradient id="screen" x1="0" y1="0" x2="1" y2="1">
      <stop stop-color="#EFF6FF"/>
      <stop offset="1" stop-color="#BFDBFE"/>
    </linearGradient>
  </defs>
  <rect x="32" y="32" width="448" height="448" rx="96" fill="url(#bg)"/>
  <rect x="226" y="116" width="182" height="246" rx="24" fill="#0F172A" stroke="#CBD5E1" stroke-width="10"/>
  <rect x="242" y="138" width="150" height="180" rx="12" fill="url(#screen)"/>
  <rect x="258" y="162" width="26" height="26" rx="6" fill="#60A5FA"/>
  <rect x="300" y="162" width="26" height="26" rx="6" fill="#60A5FA"/>
  <rect x="342" y="162" width="26" height="26" rx="6" fill="#60A5FA"/>
  <rect x="258" y="204" width="26" height="26" rx="6" fill="#93C5FD"/>
  <rect x="300" y="204" width="26" height="26" rx="6" fill="#93C5FD"/>
  <rect x="342" y="204" width="26" height="26" rx="6" fill="#93C5FD"/>
  <rect x="258" y="246" width="26" height="26" rx="6" fill="#93C5FD"/>
  <rect x="300" y="246" width="26" height="26" rx="6" fill="#93C5FD"/>
  <rect x="342" y="246" width="26" height="26" rx="6" fill="#2563EB"/>
  <rect x="278" y="338" width="76" height="10" rx="5" fill="#94A3B8"/>
  <ellipse cx="182" cy="288" rx="88" ry="76" fill="#7C4A20"/>
  <ellipse cx="158" cy="242" rx="26" ry="20" fill="#7C4A20"/>
  <ellipse cx="206" cy="236" rx="22" ry="18" fill="#8B5A2B"/>
  <circle cx="150" cy="282" r="8" fill="#111827"/>
  <circle cx="184" cy="276" r="8" fill="#111827"/>
  <path d="M149 314C159 326 181 326 194 310" stroke="#111827" stroke-width="8" stroke-linecap="round"/>
  <path d="M126 334C150 356 199 358 226 330" stroke="#6B3F1B" stroke-width="14" stroke-linecap="round"/>
  <circle cx="133" cy="262" r="5" fill="white" fill-opacity="0.85"/>
  <circle cx="187" cy="257" r="5" fill="white" fill-opacity="0.85"/>
</svg>